<svg xmlns="http://www.w3.org/2000/svg" viewBox="0 0 480 320" font-family="Kode Mono, ui-monospace, monospace"><defs><marker id="a" viewBox="0 0 10 10" refX="8" refY="5" markerWidth="6" markerHeight="6" orient="auto"><path d="M0 0L10 5L0 10z" fill="#cfaa5d"/></marker></defs><rect x="20" y="40" width="130" height="56" rx="6" fill="none" stroke="#cfaa5d" stroke-width="2.5"/><text x="85.0" y="65.0" text-anchor="middle" font-size="13" font-weight="700" fill="#ffffff">Workload</text><text x="85.0" y="81.0" text-anchor="middle" font-size="10" fill="#cfaa5d">generator</text><line x1="150" y1="68" x2="190" y2="50" stroke="#cfaa5d" stroke-width="2.5" stroke-dasharray="3 6" stroke-linecap="round" marker-end="url(#a)"/><line x1="150" y1="68" x2="190" y2="106" stroke="#cfaa5d" stroke-width="2.5" stroke-dasharray="3 6" stroke-linecap="round" marker-end="url(#a)"/><rect x="195" y="30" width="120" height="40" rx="6" fill="none" stroke="#cfaa5d" stroke-width="2.5"/><text x="255.0" y="55.0" text-anchor="middle" font-size="13" font-weight="700" fill="#ffffff">AWS Lambda</text><rect x="195" y="86" width="120" height="40" rx="6" fill="none" stroke="#cfaa5d" stroke-width="2.5"/><text x="255.0" y="111.0" text-anchor="middle" font-size="13" font-weight="700" fill="#ffffff">GCP Functions</text><line x1="315" y1="50" x2="350" y2="78" stroke="#cfaa5d" stroke-width="2.5" stroke-dasharray="3 6" stroke-linecap="round" marker-end="url(#a)"/><line x1="315" y1="106" x2="350" y2="94" stroke="#cfaa5d" stroke-width="2.5" stroke-dasharray="3 6" stroke-linecap="round" marker-end="url(#a)"/><rect x="355" y="58" width="110" height="56" rx="6" fill="none" stroke="#cfaa5d" stroke-width="2.5"/><text x="410.0" y="83.0" text-anchor="middle" font-size="13" font-weight="700" fill="#ffffff">Metrics</text><text x="410.0" y="99.0" text-anchor="middle" font-size="10" fill="#cfaa5d">latency · cost</text><line x1="410" y1="114" x2="410" y2="168" stroke="#cfaa5d" stroke-width="2.5" stroke-dasharray="3 6" stroke-linecap="round" marker-end="url(#a)"/><rect x="330" y="174" width="140" height="56" rx="6" fill="none" stroke="#cfaa5d" stroke-width="2.5"/><text x="400.0" y="199.0" text-anchor="middle" font-size="13" font-weight="700" fill="#ffffff">Analysis</text><text x="400.0" y="215.0" text-anchor="middle" font-size="10" fill="#cfaa5d">scalability</text><rect x="20" y="174" width="130" height="56" rx="6" fill="none" stroke="#cfaa5d" stroke-width="2.5"/><text x="85.0" y="199.0" text-anchor="middle" font-size="13" font-weight="700" fill="#ffffff">Prototypes</text><text x="85.0" y="215.0" text-anchor="middle" font-size="10" fill="#cfaa5d">Java · Docker</text><line x1="150" y1="202" x2="190" y2="202" stroke="#cfaa5d" stroke-width="2.5" stroke-dasharray="3 6" stroke-linecap="round" marker-end="url(#a)"/><rect x="195" y="174" width="120" height="56" rx="6" fill="none" stroke="#cfaa5d" stroke-width="2.5"/><text x="255.0" y="199.0" text-anchor="middle" font-size="13" font-weight="700" fill="#ffffff">Benchmarks</text><text x="255.0" y="215.0" text-anchor="middle" font-size="10" fill="#cfaa5d">repeatable</text><line x1="315" y1="202" x2="326" y2="202" stroke="#cfaa5d" stroke-width="2.5" stroke-dasharray="3 6" stroke-linecap="round" marker-end="url(#a)"/><text x="240" y="290" font-size="11" fill="#9aa6cf" text-anchor="middle">Event-driven FaaS research · TU Berlin</text></svg>